<?xml version="1.0" encoding="utf-8"?>
<!-- Generator: Adobe Illustrator 27.3.1, SVG Export Plug-In . SVG Version: 6.00 Build 0)  -->
<svg version="1.1" id="Layer_1" xmlns="http://www.w3.org/2000/svg" xmlns:xlink="http://www.w3.org/1999/xlink" x="0px" y="0px"
	 viewBox="0 0 52.8 52.7" style="enable-background:new 0 0 52.8 52.7;" xml:space="preserve">
<style type="text/css">
	.st0{fill-rule:evenodd;clip-rule:evenodd;fill:#0291F7;}
</style>
<path class="st0" d="M26.4,0c14.6,0,26.4,11.8,26.4,26.4S40.9,52.7,26.4,52.7S0,40.9,0,26.4S11.8,0,26.4,0L26.4,0z M24.4,38.1
	c0-1.2-0.9-2.1-2.1-2.1h-0.1c-1.2,0-2.1,0.9-2.1,2.1s0.9,2.1,2.1,2.1h0.1C23.5,40.2,24.4,39.2,24.4,38.1
	C24.4,38.1,24.4,38.1,24.4,38.1z M38.1,38.1c0-1.2-0.9-2.1-2.1-2.1h-0.1c-1.2,0-2.1,0.9-2.1,2.1s0.9,2.1,2.1,2.1H36
	C37.2,40.2,38.1,39.2,38.1,38.1C38.1,38.1,38.1,38.1,38.1,38.1z M37.8,30.1l1.1-10.2H21l1.2,10.2H37.8z M42.1,17
	c-0.7-0.8-1.7-1.3-2.8-1.2H20.5c-0.2-0.8-0.6-1.6-1.2-2.1c-0.7-0.6-1.6-0.9-2.5-1l-5.1-0.1h0c-1.2,0-2.1,0.9-2.1,2.1
	c0,1.1,0.9,2.1,2.1,2.1l4.8,0.1l1.6,14c0.2,1.9,1.8,3.4,3.8,3.4h16.4c1.9,0,3.6-1.5,3.8-3.4l1.1-11C43.2,18.8,42.9,17.8,42.1,17
	L42.1,17z"/>
</svg>
