<?xml version="1.0" encoding="utf-8"?>
<!-- Generator: Adobe Illustrator 27.3.1, SVG Export Plug-In . SVG Version: 6.00 Build 0)  -->
<svg version="1.1" id="OBJECTS" xmlns="http://www.w3.org/2000/svg" xmlns:xlink="http://www.w3.org/1999/xlink" x="0px" y="0px"
	 viewBox="0 0 149.6 133.2" style="enable-background:new 0 0 149.6 133.2;" xml:space="preserve">
<style type="text/css">
	.st0{fill:#5190F3;}
	.st1{fill:#3B444C;}
	.st2{fill:#1F55A3;}
	.st3{fill:#F4F4F4;}
	.st4{opacity:0.2;fill:#C4952C;}
</style>
<g>
	<g>
		<g>
			<path class="st0" d="M5.4,118.6c-1.3-0.7-2.3-1.6-3-2.8c-0.7-1.2-1.1-2.6-1.1-4.2c0-2.1,0.5-4,1.4-5.7c0.9-1.7,2.2-3,3.9-4
				c1.7-1,3.6-1.5,5.7-1.5c1.6,0,3,0.3,4.2,0.8s2.1,1.4,2.8,2.4l-3,2.5c-0.9-1.4-2.4-2.2-4.3-2.2c-1.3,0-2.4,0.3-3.4,1
				c-1,0.6-1.8,1.5-2.3,2.6c-0.5,1.1-0.8,2.3-0.8,3.6c0,1.4,0.4,2.6,1.3,3.4c0.9,0.8,2.1,1.3,3.7,1.3c1.9,0,3.4-0.7,4.7-2.1l2.4,2.6
				c-1.8,2.1-4.2,3.2-7.5,3.2C8.3,119.6,6.7,119.2,5.4,118.6z"/>
			<path class="st0" d="M22.4,118.7c-1-0.5-1.8-1.3-2.4-2.2c-0.6-1-0.8-2.1-0.8-3.3c0-1.6,0.4-3,1.1-4.2c0.7-1.3,1.7-2.2,2.9-3
				c1.2-0.7,2.7-1.1,4.2-1.1c1.4,0,2.6,0.3,3.6,0.8c1,0.5,1.8,1.3,2.4,2.2c0.6,1,0.8,2.1,0.8,3.3c0,1.6-0.4,3-1,4.2
				c-0.7,1.3-1.7,2.2-2.9,3c-1.3,0.7-2.7,1.1-4.2,1.1C24.6,119.5,23.4,119.2,22.4,118.7z M28.3,115.5c0.6-0.4,1.1-0.9,1.4-1.7
				c0.3-0.7,0.5-1.5,0.5-2.4c0-1-0.3-1.7-0.8-2.3s-1.3-0.8-2.3-0.8c-0.8,0-1.5,0.2-2.1,0.6s-1.1,0.9-1.4,1.7
				c-0.3,0.7-0.5,1.5-0.5,2.4c0,1,0.3,1.7,0.8,2.3s1.3,0.8,2.3,0.8C27,116.1,27.7,115.9,28.3,115.5z"/>
			<path class="st0" d="M53.4,99.6l-3.7,19.6h-3.7l0.3-1.4c-1.1,1.1-2.5,1.6-4.2,1.6c-1.1,0-2-0.3-2.9-0.8c-0.9-0.5-1.6-1.2-2.1-2.2
				s-0.8-2.1-0.8-3.4c0-1.6,0.3-3,1-4.2c0.7-1.3,1.6-2.2,2.7-3s2.4-1.1,3.8-1.1c1,0,1.9,0.2,2.6,0.5c0.8,0.4,1.3,0.9,1.8,1.6
				l1.4-7.3H53.4z M45.3,115.5c0.6-0.4,1.1-0.9,1.4-1.7c0.3-0.7,0.5-1.5,0.5-2.4c0-1-0.3-1.7-0.8-2.3c-0.5-0.6-1.3-0.8-2.3-0.8
				c-0.8,0-1.5,0.2-2.1,0.6s-1.1,0.9-1.4,1.7c-0.3,0.7-0.5,1.5-0.5,2.4c0,1,0.3,1.7,0.8,2.3c0.5,0.6,1.3,0.8,2.3,0.8
				C44,116.1,44.7,115.9,45.3,115.5z"/>
			<path class="st0" d="M68.2,113.3H57.8c0.1,1.9,1.3,2.9,3.5,2.9c0.7,0,1.4-0.1,2-0.3c0.6-0.2,1.2-0.6,1.7-1l1.6,2.7
				c-0.8,0.6-1.6,1.1-2.6,1.4c-1,0.3-2,0.5-3.1,0.5c-1.4,0-2.6-0.3-3.7-0.8c-1.1-0.5-1.9-1.3-2.4-2.2c-0.6-1-0.8-2.1-0.8-3.4
				c0-1.6,0.3-3,1-4.2c0.7-1.3,1.6-2.2,2.8-3c1.2-0.7,2.6-1.1,4.1-1.1c1.3,0,2.5,0.3,3.4,0.8c1,0.5,1.7,1.2,2.3,2.2
				c0.5,1,0.8,2.1,0.8,3.3C68.4,111.7,68.3,112.5,68.2,113.3z M59.4,108.7c-0.6,0.5-1.1,1.2-1.4,2.2h6.8c0-0.9-0.3-1.6-0.8-2.2
				c-0.5-0.5-1.3-0.8-2.2-0.8C60.8,107.9,60,108.2,59.4,108.7z"/>
			<path class="st0" d="M78.1,105.3c0.8-0.3,1.8-0.4,2.9-0.4l-0.7,3.8c-0.5,0-0.8-0.1-0.9-0.1c-1.2,0-2.2,0.3-2.9,0.9
				c-0.7,0.6-1.2,1.6-1.5,2.9l-1.3,6.9h-3.9l2.7-14.2h3.7l-0.3,1.7C76.6,106.1,77.3,105.6,78.1,105.3z"/>
			<path class="st1" d="M83.3,119c-1.3-0.4-2.3-0.9-3.1-1.5l1.7-3.3c0.8,0.6,1.7,1.1,2.7,1.4c1,0.3,2,0.5,3.1,0.5
				c1.1,0,2-0.2,2.7-0.6c0.7-0.4,1-0.9,1-1.6c0-0.5-0.3-1-0.8-1.3c-0.5-0.3-1.4-0.6-2.5-0.9c-1.1-0.4-2.1-0.7-2.8-1
				c-0.7-0.3-1.4-0.8-1.9-1.5s-0.8-1.5-0.8-2.6c0-1.3,0.3-2.4,1-3.3s1.6-1.7,2.8-2.2c1.2-0.5,2.6-0.8,4.3-0.8c1.2,0,2.3,0.1,3.4,0.4
				c1.1,0.3,2,0.7,2.7,1.2l-1.5,3.3c-0.7-0.5-1.4-0.8-2.2-1.1c-0.8-0.2-1.7-0.4-2.6-0.4c-1.2,0-2.1,0.2-2.8,0.6c-0.7,0.4-1,1-1,1.6
				c0,0.4,0.1,0.7,0.4,1c0.3,0.3,0.6,0.5,1.1,0.7c0.4,0.2,1.1,0.4,1.8,0.6c1.1,0.3,2.1,0.6,2.8,1c0.7,0.3,1.3,0.8,1.9,1.4
				c0.5,0.6,0.8,1.4,0.8,2.5c0,1.3-0.3,2.4-1,3.3c-0.7,0.9-1.6,1.7-2.9,2.2c-1.2,0.5-2.7,0.8-4.3,0.8C86,119.6,84.6,119.4,83.3,119z
				"/>
			<path class="st1" d="M111.7,106.1c0.9,0.8,1.3,2,1.3,3.6c0,0.6-0.1,1.1-0.2,1.7l-1.5,7.9h-3.9l1.5-7.6c0.1-0.3,0.1-0.6,0.1-1
				c0-0.7-0.2-1.3-0.6-1.7c-0.4-0.4-1-0.6-1.7-0.6c-1,0-1.9,0.3-2.5,0.9s-1.1,1.5-1.4,2.7l-1.4,7.2h-3.9l3.7-19.6h3.9l-1.3,6.7
				c1.2-1,2.6-1.5,4.2-1.5C109.6,104.8,110.8,105.3,111.7,106.1z"/>
			<path class="st1" d="M118.9,118.7c-1-0.5-1.8-1.3-2.4-2.2c-0.6-1-0.8-2.1-0.8-3.3c0-1.6,0.4-3,1.1-4.2c0.7-1.3,1.7-2.2,2.9-3
				c1.2-0.7,2.7-1.1,4.2-1.1c1.4,0,2.6,0.3,3.6,0.8c1,0.5,1.8,1.3,2.4,2.2c0.6,1,0.8,2.1,0.8,3.3c0,1.6-0.4,3-1,4.2
				c-0.7,1.3-1.7,2.2-2.9,3c-1.3,0.7-2.7,1.1-4.2,1.1C121.1,119.5,119.9,119.2,118.9,118.7z M124.8,115.5c0.6-0.4,1.1-0.9,1.4-1.7
				c0.3-0.7,0.5-1.5,0.5-2.4c0-1-0.3-1.7-0.8-2.3s-1.3-0.8-2.3-0.8c-0.8,0-1.5,0.2-2.1,0.6s-1.1,0.9-1.4,1.7
				c-0.3,0.7-0.5,1.5-0.5,2.4c0,1,0.3,1.7,0.8,2.3s1.3,0.8,2.3,0.8C123.5,116.1,124.2,115.9,124.8,115.5z"/>
			<path class="st1" d="M145.6,105.6c0.9,0.5,1.6,1.2,2.1,2.2c0.5,1,0.8,2.1,0.8,3.4c0,1.6-0.3,3-1,4.2c-0.7,1.3-1.6,2.2-2.7,3
				c-1.1,0.7-2.4,1.1-3.8,1.1c-2.1,0-3.5-0.7-4.4-2.1l-1.3,7h-3.9L135,105h3.7l-0.3,1.4c1.1-1.1,2.5-1.6,4.2-1.6
				C143.7,104.8,144.7,105.1,145.6,105.6z M142.6,115.5c0.6-0.4,1.1-0.9,1.4-1.7c0.3-0.7,0.5-1.5,0.5-2.4c0-1-0.3-1.7-0.8-2.3
				c-0.5-0.6-1.3-0.8-2.3-0.8c-0.8,0-1.4,0.2-2,0.6s-1.1,0.9-1.4,1.7c-0.3,0.7-0.5,1.5-0.5,2.4c0,1,0.3,1.7,0.8,2.3
				c0.5,0.6,1.3,0.8,2.3,0.8C141.3,116.1,142,115.9,142.6,115.5z"/>
		</g>
		<g>
			<path class="st1" d="M52.3,124c-0.1,0.1-0.2,0.4-0.3,0.6l0,0.2h1.4l-0.2,1.3h-1.3l-0.8,4.3h-1.6l0.8-4.3h-0.8l0.2-1.3h0.8
				l0.1-0.3c0.1-0.6,0.4-1.1,0.8-1.5c0.4-0.4,0.9-0.5,1.6-0.5c0.2,0,0.5,0,0.7,0.1s0.4,0.1,0.6,0.2l-0.6,1.2
				c-0.2-0.1-0.4-0.2-0.6-0.2C52.7,123.8,52.5,123.9,52.3,124z"/>
			<path class="st1" d="M57.9,124.9c0.3-0.1,0.7-0.2,1.2-0.2l-0.3,1.5c-0.2,0-0.3,0-0.4,0c-0.5,0-0.9,0.1-1.1,0.4
				c-0.3,0.2-0.5,0.6-0.6,1.1l-0.5,2.7h-1.6l1.1-5.7h1.5l-0.1,0.7C57.2,125.2,57.5,125,57.9,124.9z"/>
			<path class="st1" d="M60.9,130.2c-0.4-0.2-0.7-0.5-1-0.9s-0.3-0.8-0.3-1.3c0-0.6,0.1-1.2,0.4-1.7c0.3-0.5,0.7-0.9,1.2-1.2
				c0.5-0.3,1.1-0.4,1.7-0.4c0.6,0,1,0.1,1.4,0.3c0.4,0.2,0.7,0.5,1,0.9c0.2,0.4,0.3,0.8,0.3,1.3c0,0.6-0.1,1.2-0.4,1.7
				c-0.3,0.5-0.7,0.9-1.2,1.2c-0.5,0.3-1.1,0.4-1.7,0.4C61.8,130.5,61.3,130.4,60.9,130.2z M63.2,128.9c0.2-0.2,0.4-0.4,0.6-0.7
				c0.1-0.3,0.2-0.6,0.2-1c0-0.4-0.1-0.7-0.3-0.9c-0.2-0.2-0.5-0.3-0.9-0.3c-0.3,0-0.6,0.1-0.8,0.2c-0.2,0.2-0.4,0.4-0.6,0.7
				c-0.1,0.3-0.2,0.6-0.2,1c0,0.4,0.1,0.7,0.3,0.9c0.2,0.2,0.5,0.3,0.9,0.3C62.7,129.2,63,129.1,63.2,128.9z"/>
			<path class="st1" d="M72.4,125.2c0.4,0.3,0.5,0.8,0.5,1.4c0,0.2,0,0.5-0.1,0.7l-0.6,3.1h-1.6l0.6-3c0-0.1,0-0.2,0-0.4
				c0-0.3-0.1-0.5-0.2-0.7c-0.2-0.2-0.4-0.2-0.7-0.2c-0.4,0-0.7,0.1-1,0.4s-0.4,0.6-0.5,1.1l-0.5,2.9h-1.6l1.1-5.7h1.5l-0.1,0.6
				c0.5-0.5,1.1-0.7,1.8-0.7C71.5,124.7,72,124.9,72.4,125.2z"/>
			<path class="st1" d="M76.4,128.4c0,0.1,0,0.1,0,0.2c0,0.4,0.2,0.5,0.6,0.5c0.2,0,0.4-0.1,0.6-0.2l0.2,1.2
				c-0.3,0.2-0.8,0.3-1.3,0.3c-0.5,0-0.9-0.1-1.2-0.4c-0.3-0.3-0.5-0.7-0.5-1.2c0-0.1,0-0.3,0.1-0.5l0.4-2.3h-0.8l0.2-1.3h0.8
				l0.3-1.4h1.6l-0.3,1.4h1.3l-0.2,1.3h-1.3L76.4,128.4z"/>
			<path class="st1" d="M84.9,128h-4.1c0.1,0.8,0.5,1.2,1.4,1.2c0.3,0,0.5,0,0.8-0.1c0.3-0.1,0.5-0.2,0.7-0.4l0.7,1.1
				c-0.3,0.3-0.6,0.4-1,0.6c-0.4,0.1-0.8,0.2-1.2,0.2c-0.6,0-1-0.1-1.5-0.3c-0.4-0.2-0.7-0.5-1-0.9c-0.2-0.4-0.3-0.8-0.3-1.3
				c0-0.6,0.1-1.2,0.4-1.7c0.3-0.5,0.6-0.9,1.1-1.2s1-0.4,1.7-0.4c0.5,0,1,0.1,1.4,0.3s0.7,0.5,0.9,0.9s0.3,0.8,0.3,1.3
				C85,127.4,85,127.7,84.9,128z M81.5,126.2c-0.3,0.2-0.4,0.5-0.5,0.9h2.7c0-0.4-0.1-0.7-0.3-0.9s-0.5-0.3-0.9-0.3
				S81.7,126,81.5,126.2z"/>
			<path class="st1" d="M91.8,125.2c0.4,0.3,0.5,0.8,0.5,1.4c0,0.2,0,0.5-0.1,0.7l-0.6,3.1h-1.6l0.6-3c0-0.1,0-0.2,0-0.4
				c0-0.3-0.1-0.5-0.2-0.7c-0.2-0.2-0.4-0.2-0.7-0.2c-0.4,0-0.7,0.1-1,0.4s-0.4,0.6-0.5,1.1l-0.5,2.9h-1.6l1.1-5.7h1.5l-0.1,0.6
				c0.5-0.5,1.1-0.7,1.8-0.7C91,124.7,91.4,124.9,91.8,125.2z"/>
			<path class="st1" d="M100.8,122.6l-1.5,7.8h-1.5l0.1-0.6c-0.5,0.4-1,0.7-1.7,0.7c-0.4,0-0.8-0.1-1.2-0.3
				c-0.4-0.2-0.6-0.5-0.9-0.9c-0.2-0.4-0.3-0.8-0.3-1.4c0-0.6,0.1-1.2,0.4-1.7c0.3-0.5,0.6-0.9,1.1-1.2s1-0.4,1.5-0.4
				c0.4,0,0.7,0.1,1,0.2c0.3,0.1,0.5,0.3,0.7,0.6l0.6-2.9H100.8z M97.6,128.9c0.2-0.2,0.4-0.4,0.6-0.7c0.1-0.3,0.2-0.6,0.2-1
				c0-0.4-0.1-0.7-0.3-0.9s-0.5-0.3-0.9-0.3c-0.3,0-0.6,0.1-0.8,0.2c-0.2,0.2-0.4,0.4-0.6,0.7c-0.1,0.3-0.2,0.6-0.2,1
				c0,0.4,0.1,0.7,0.3,0.9c0.2,0.2,0.5,0.3,0.9,0.3C97,129.2,97.3,129.1,97.6,128.9z"/>
		</g>
	</g>
	<g>
		<path class="st1" d="M97.1,26.6l-0.8-15.8c-0.5-6-5.4-10.6-11.4-10.7L78.5,0c0,0-0.1,0-0.1,0c-6,0-11.1,4.7-11.6,10.7l-0.9,15.9
			c-0.1,0.9,0.6,1.8,1.6,1.9c0,0,0.1,0,0.1,0c0.9,0,1.6-0.7,1.7-1.6l0.9-15.9c0.4-4.2,3.9-7.5,8.2-7.5c0,0,0.1,0,0.1,0l6.3,0.1
			c4.3,0.1,7.7,3.3,8.1,7.5l0.8,15.8c0.1,0.9,0.8,1.6,1.7,1.6c0,0,0.1,0,0.1,0C96.5,28.4,97.2,27.5,97.1,26.6z"/>
		<path class="st2" d="M55.5,22.3l-8.1,55.5c-0.9,6.1,3.8,11.5,10,11.5h46c6.2,0,12.5-3.3,11.5-9.4l-10.7-57.6c-0.3-1.7-1.8-3-3.6-3
			H59.1C57.3,19.3,55.8,20.6,55.5,22.3z"/>
		<path class="st0" d="M46.2,22.2L38.1,78c-0.9,6.1,3.8,11.6,10,11.6l56.3-0.3c0,0-3.5-0.9-4.9-8.2c-2.5-12.3-4.6-59-4.6-59
			c-0.3-1.7-1.8-3-3.6-3H49.7C48,19.1,46.4,20.5,46.2,22.2z"/>
		<path class="st1" d="M87.8,26.9l-0.8-15.8C86.5,5,81.5,0.4,75.5,0.4l-6.3-0.1c0,0-0.1,0-0.1,0c-6,0-11.1,4.7-11.6,10.7l-0.9,15.9
			c-0.1,0.9,0.6,1.8,1.6,1.9c0,0,0.1,0,0.1,0c0.9,0,1.6-0.7,1.7-1.6l0.9-15.9c0.4-4.2,3.9-7.5,8.2-7.5c0,0,0.1,0,0.1,0l6.3,0.1
			c4.3,0.1,7.7,3.3,8.1,7.5l0.8,15.8c0.1,0.9,0.8,1.6,1.7,1.6c0,0,0.1,0,0.1,0C87.1,28.6,87.8,27.8,87.8,26.9z"/>
		<g>
			<path class="st3" d="M84.7,58.3l-21.5,1.1c1,3.8,4.4,6,9.2,5.7c2.2-0.1,3.9-0.6,5.5-1.5c1.6-0.9,3.6-0.7,4.8,0.5l0,0
				c1.6,1.5,1.3,4.1-0.6,5.4c-2.6,1.7-5.8,2.6-9.7,2.8c-10.9,0.6-18.2-5.8-18.4-15c-0.2-9.2,6.8-16.3,16.4-16.7
				c9.3-0.5,16.6,5.3,16.9,15.2c0,0,0,0,0,0C87.3,57.1,86.2,58.2,84.7,58.3z M63,54.2l15.6-0.8c-0.7-3.9-3.8-6.2-7.9-6
				C66.5,47.5,63.6,50.2,63,54.2z"/>
		</g>
		<path class="st4" d="M99.6,24.2c0,0,5.1,46.4,4.9,51.2c-0.2,4.8-0.7,12.2-0.7,12.2s2.6-9,3.9-8.8s6.6,2.1,6.6,2.1s-6.7-4.9-7.9-9
			C105.9,69.9,99.6,24.2,99.6,24.2z"/>
	</g>
</g>
</svg>
